<?xml version="1.0" encoding="UTF-8" standalone="no"?>
<!DOCTYPE svg PUBLIC "-//W3C//DTD SVG 1.1//EN"
 "http://www.w3.org/Graphics/SVG/1.1/DTD/svg11.dtd">
<!-- Generated by graphviz version 2.43.0 (0)
 -->
<!-- Title: snakemake_dag Pages: 1 -->
<svg width="1174pt" height="548pt"
 viewBox="0.00 0.00 1174.00 548.00" xmlns="http://www.w3.org/2000/svg" xmlns:xlink="http://www.w3.org/1999/xlink">
<g id="graph0" class="graph" transform="scale(1 1) rotate(0) translate(4 544)">
<title>snakemake_dag</title>
<polygon fill="white" stroke="transparent" points="-4,4 -4,-544 1170,-544 1170,4 -4,4"/>
<!-- 0 -->
<g id="node1" class="node">
<title>0</title>
<path fill="none" stroke="#68d856" stroke-width="2" d="M650.5,-36C650.5,-36 620.5,-36 620.5,-36 614.5,-36 608.5,-30 608.5,-24 608.5,-24 608.5,-12 608.5,-12 608.5,-6 614.5,0 620.5,0 620.5,0 650.5,0 650.5,0 656.5,0 662.5,-6 662.5,-12 662.5,-12 662.5,-24 662.5,-24 662.5,-30 656.5,-36 650.5,-36"/>
<text text-anchor="middle" x="635.5" y="-15.5" font-family="sans" font-size="10.00">all</text>
</g>
<!-- 1 -->
<g id="node2" class="node">
<title>1</title>
<path fill="none" stroke="#8fd856" stroke-width="2" stroke-dasharray="5,2" d="M264.5,-108C264.5,-108 218.5,-108 218.5,-108 212.5,-108 206.5,-102 206.5,-96 206.5,-96 206.5,-84 206.5,-84 206.5,-78 212.5,-72 218.5,-72 218.5,-72 264.5,-72 264.5,-72 270.5,-72 276.5,-78 276.5,-84 276.5,-84 276.5,-96 276.5,-96 276.5,-102 270.5,-108 264.5,-108"/>
<text text-anchor="middle" x="241.5" y="-87.5" font-family="sans" font-size="10.00">fastqc_odd</text>
</g>
<!-- 1&#45;&gt;0 -->
<g id="edge1" class="edge">
<title>1&#45;&gt;0</title>
<path fill="none" stroke="grey" stroke-width="2" d="M276.82,-74.59C279.73,-73.64 282.65,-72.76 285.5,-72 397.19,-42.35 533.63,-27.66 598.21,-21.95"/>
<polygon fill="grey" stroke="grey" stroke-width="2" points="598.64,-25.43 608.31,-21.08 598.04,-18.46 598.64,-25.43"/>
</g>
<!-- 2 -->
<g id="node3" class="node">
<title>2</title>
<path fill="none" stroke="#56d87b" stroke-width="2" stroke-dasharray="5,2" d="M358.5,-108C358.5,-108 306.5,-108 306.5,-108 300.5,-108 294.5,-102 294.5,-96 294.5,-96 294.5,-84 294.5,-84 294.5,-78 300.5,-72 306.5,-72 306.5,-72 358.5,-72 358.5,-72 364.5,-72 370.5,-78 370.5,-84 370.5,-84 370.5,-96 370.5,-96 370.5,-102 364.5,-108 358.5,-108"/>
<text text-anchor="middle" x="332.5" y="-87.5" font-family="sans" font-size="10.00">fastqc_even</text>
</g>
<!-- 2&#45;&gt;0 -->
<g id="edge2" class="edge">
<title>2&#45;&gt;0</title>
<path fill="none" stroke="grey" stroke-width="2" d="M370.57,-74.71C373.58,-73.74 376.58,-72.83 379.5,-72 456.15,-50.32 548.03,-33.46 598.23,-24.99"/>
<polygon fill="grey" stroke="grey" stroke-width="2" points="599,-28.41 608.29,-23.32 597.85,-21.51 599,-28.41"/>
</g>
<!-- 3 -->
<g id="node4" class="node">
<title>3</title>
<path fill="none" stroke="#56d0d8" stroke-width="2" stroke-dasharray="5,2" d="M454,-108C454,-108 401,-108 401,-108 395,-108 389,-102 389,-96 389,-96 389,-84 389,-84 389,-78 395,-72 401,-72 401,-72 454,-72 454,-72 460,-72 466,-78 466,-84 466,-84 466,-96 466,-96 466,-102 460,-108 454,-108"/>
<text text-anchor="middle" x="427.5" y="-87.5" font-family="sans" font-size="10.00">fastqc_input</text>
</g>
<!-- 3&#45;&gt;0 -->
<g id="edge3" class="edge">
<title>3&#45;&gt;0</title>
<path fill="none" stroke="grey" stroke-width="2" d="M466.14,-76C503.94,-63.28 561.11,-44.03 598.38,-31.49"/>
<polygon fill="grey" stroke="grey" stroke-width="2" points="599.97,-34.65 608.33,-28.14 597.74,-28.01 599.97,-34.65"/>
</g>
<!-- 4 -->
<g id="node5" class="node">
<title>4</title>
<path fill="none" stroke="#566bd8" stroke-width="2" stroke-dasharray="5,2" d="M727,-180C727,-180 638,-180 638,-180 632,-180 626,-174 626,-168 626,-168 626,-156 626,-156 626,-150 632,-144 638,-144 638,-144 727,-144 727,-144 733,-144 739,-150 739,-156 739,-156 739,-168 739,-168 739,-174 733,-180 727,-180"/>
<text text-anchor="middle" x="682.5" y="-159.5" font-family="sans" font-size="10.00">bamcoverage_input</text>
</g>
<!-- 4&#45;&gt;0 -->
<g id="edge4" class="edge">
<title>4&#45;&gt;0</title>
<path fill="none" stroke="grey" stroke-width="2" d="M648.66,-143.96C635.12,-135.22 620.98,-123.17 613.5,-108 603.67,-88.06 611.12,-63.39 619.91,-45.08"/>
<polygon fill="grey" stroke="grey" stroke-width="2" points="623.05,-46.64 624.55,-36.15 616.83,-43.41 623.05,-46.64"/>
</g>
<!-- 21 -->
<g id="node22" class="node">
<title>21</title>
<path fill="none" stroke="#80d856" stroke-width="2" d="M718,-108C718,-108 635,-108 635,-108 629,-108 623,-102 623,-96 623,-96 623,-84 623,-84 623,-78 629,-72 635,-72 635,-72 718,-72 718,-72 724,-72 730,-78 730,-84 730,-84 730,-96 730,-96 730,-102 724,-108 718,-108"/>
<text text-anchor="middle" x="676.5" y="-87.5" font-family="sans" font-size="10.00">multi_bw_analysis</text>
</g>
<!-- 4&#45;&gt;21 -->
<g id="edge30" class="edge">
<title>4&#45;&gt;21</title>
<path fill="none" stroke="grey" stroke-width="2" d="M681.02,-143.7C680.36,-135.98 679.56,-126.71 678.82,-118.11"/>
<polygon fill="grey" stroke="grey" stroke-width="2" points="682.31,-117.77 677.97,-108.1 675.33,-118.37 682.31,-117.77"/>
</g>
<!-- 24 -->
<g id="node25" class="node">
<title>24</title>
<path fill="none" stroke="#5692d8" stroke-width="2" d="M849,-108C849,-108 760,-108 760,-108 754,-108 748,-102 748,-96 748,-96 748,-84 748,-84 748,-78 754,-72 760,-72 760,-72 849,-72 849,-72 855,-72 861,-78 861,-84 861,-84 861,-96 861,-96 861,-102 855,-108 849,-108"/>
<text text-anchor="middle" x="804.5" y="-87.5" font-family="sans" font-size="10.00">plot_peak_heatmap</text>
</g>
<!-- 4&#45;&gt;24 -->
<g id="edge38" class="edge">
<title>4&#45;&gt;24</title>
<path fill="none" stroke="grey" stroke-width="2" d="M712.34,-143.88C728.44,-134.64 748.5,-123.13 765.79,-113.21"/>
<polygon fill="grey" stroke="grey" stroke-width="2" points="767.61,-116.2 774.54,-108.19 764.13,-110.13 767.61,-116.2"/>
</g>
<!-- 5 -->
<g id="node6" class="node">
<title>5</title>
<path fill="none" stroke="#56d8b9" stroke-width="2" stroke-dasharray="5,2" d="M739.5,-324C739.5,-324 631.5,-324 631.5,-324 625.5,-324 619.5,-318 619.5,-312 619.5,-312 619.5,-300 619.5,-300 619.5,-294 625.5,-288 631.5,-288 631.5,-288 739.5,-288 739.5,-288 745.5,-288 751.5,-294 751.5,-300 751.5,-300 751.5,-312 751.5,-312 751.5,-318 745.5,-324 739.5,-324"/>
<text text-anchor="middle" x="685.5" y="-303.5" font-family="sans" font-size="10.00">postprocess_bam_input</text>
</g>
<!-- 5&#45;&gt;4 -->
<g id="edge13" class="edge">
<title>5&#45;&gt;4</title>
<path fill="none" stroke="grey" stroke-width="2" d="M685.14,-287.87C684.63,-263.67 683.69,-219.21 683.08,-190.39"/>
<polygon fill="grey" stroke="grey" stroke-width="2" points="686.57,-190.11 682.86,-180.19 679.58,-190.26 686.57,-190.11"/>
</g>
<!-- 22 -->
<g id="node23" class="node">
<title>22</title>
<path fill="none" stroke="#59d856" stroke-width="2" d="M866,-252C866,-252 799,-252 799,-252 793,-252 787,-246 787,-240 787,-240 787,-228 787,-228 787,-222 793,-216 799,-216 799,-216 866,-216 866,-216 872,-216 878,-222 878,-228 878,-228 878,-240 878,-240 878,-246 872,-252 866,-252"/>
<text text-anchor="middle" x="832.5" y="-231.5" font-family="sans" font-size="10.00">plot_fingerprint</text>
</g>
<!-- 5&#45;&gt;22 -->
<g id="edge33" class="edge">
<title>5&#45;&gt;22</title>
<path fill="none" stroke="grey" stroke-width="2" d="M721.46,-287.88C741.38,-278.39 766.32,-266.51 787.52,-256.42"/>
<polygon fill="grey" stroke="grey" stroke-width="2" points="789.13,-259.53 796.66,-252.07 786.12,-253.21 789.13,-259.53"/>
</g>
<!-- 23 -->
<g id="node24" class="node">
<title>23</title>
<path fill="none" stroke="#56d892" stroke-width="2" d="M840,-180C840,-180 769,-180 769,-180 763,-180 757,-174 757,-168 757,-168 757,-156 757,-156 757,-150 763,-144 769,-144 769,-144 840,-144 840,-144 846,-144 852,-150 852,-156 852,-156 852,-168 852,-168 852,-174 846,-180 840,-180"/>
<text text-anchor="middle" x="804.5" y="-159.5" font-family="sans" font-size="10.00">macs3_callpeak</text>
</g>
<!-- 5&#45;&gt;23 -->
<g id="edge35" class="edge">
<title>5&#45;&gt;23</title>
<path fill="none" stroke="grey" stroke-width="2" d="M699.85,-287.87C720.67,-263.03 759.38,-216.85 783.43,-188.14"/>
<polygon fill="grey" stroke="grey" stroke-width="2" points="786.35,-190.1 790.09,-180.19 780.99,-185.61 786.35,-190.1"/>
</g>
<!-- 25 -->
<g id="node26" class="node">
<title>25</title>
<path fill="none" stroke="#56d86b" stroke-width="2" d="M504.5,-252C504.5,-252 440.5,-252 440.5,-252 434.5,-252 428.5,-246 428.5,-240 428.5,-240 428.5,-228 428.5,-228 428.5,-222 434.5,-216 440.5,-216 440.5,-216 504.5,-216 504.5,-216 510.5,-216 516.5,-222 516.5,-228 516.5,-228 516.5,-240 516.5,-240 516.5,-246 510.5,-252 504.5,-252"/>
<text text-anchor="middle" x="472.5" y="-231.5" font-family="sans" font-size="10.00">multiqc_report</text>
</g>
<!-- 5&#45;&gt;25 -->
<g id="edge50" class="edge">
<title>5&#45;&gt;25</title>
<path fill="none" stroke="grey" stroke-width="2" d="M633.67,-287.97C601.19,-277.29 559.41,-263.56 526.53,-252.76"/>
<polygon fill="grey" stroke="grey" stroke-width="2" points="527.22,-249.3 516.63,-249.5 525.04,-255.95 527.22,-249.3"/>
</g>
<!-- 6 -->
<g id="node7" class="node">
<title>6</title>
<path fill="none" stroke="#d8a456" stroke-width="2" stroke-dasharray="5,2" d="M307,-396C307,-396 200,-396 200,-396 194,-396 188,-390 188,-384 188,-384 188,-372 188,-372 188,-366 194,-360 200,-360 200,-360 307,-360 307,-360 313,-360 319,-366 319,-372 319,-372 319,-384 319,-384 319,-390 313,-396 307,-396"/>
<text text-anchor="middle" x="253.5" y="-375.5" font-family="sans" font-size="10.00">bowtie2_genome_input</text>
</g>
<!-- 6&#45;&gt;5 -->
<g id="edge14" class="edge">
<title>6&#45;&gt;5</title>
<path fill="none" stroke="grey" stroke-width="2" d="M319.11,-366.37C397.06,-353.74 526.87,-332.7 609.22,-319.36"/>
<polygon fill="grey" stroke="grey" stroke-width="2" points="609.96,-322.79 619.27,-317.73 608.84,-315.88 609.96,-322.79"/>
</g>
<!-- 6&#45;&gt;25 -->
<g id="edge47" class="edge">
<title>6&#45;&gt;25</title>
<path fill="none" stroke="grey" stroke-width="2" d="M265.16,-359.68C279.26,-339.91 304.72,-307.75 333.5,-288 359.2,-270.36 391.56,-257.58 418.59,-248.99"/>
<polygon fill="grey" stroke="grey" stroke-width="2" points="419.75,-252.29 428.28,-246.01 417.69,-245.6 419.75,-252.29"/>
</g>
<!-- 7 -->
<g id="node8" class="node">
<title>7</title>
<path fill="none" stroke="#a7d856" stroke-width="2" stroke-dasharray="5,2" d="M133.5,-468C133.5,-468 29.5,-468 29.5,-468 23.5,-468 17.5,-462 17.5,-456 17.5,-456 17.5,-444 17.5,-444 17.5,-438 23.5,-432 29.5,-432 29.5,-432 133.5,-432 133.5,-432 139.5,-432 145.5,-438 145.5,-444 145.5,-444 145.5,-456 145.5,-456 145.5,-462 139.5,-468 133.5,-468"/>
<text text-anchor="middle" x="81.5" y="-447.5" font-family="sans" font-size="10.00">bowtie2_repeats_input</text>
</g>
<!-- 7&#45;&gt;6 -->
<g id="edge15" class="edge">
<title>7&#45;&gt;6</title>
<path fill="none" stroke="grey" stroke-width="2" d="M123.58,-431.88C147.3,-422.22 177.12,-410.09 202.2,-399.88"/>
<polygon fill="grey" stroke="grey" stroke-width="2" points="203.62,-403.08 211.56,-396.07 200.98,-396.6 203.62,-403.08"/>
</g>
<!-- 7&#45;&gt;25 -->
<g id="edge44" class="edge">
<title>7&#45;&gt;25</title>
<path fill="none" stroke="grey" stroke-width="2" d="M82.91,-431.93C86.64,-398.54 99.88,-324.63 145.5,-288 186.57,-255.02 336.27,-242.1 418.13,-237.42"/>
<polygon fill="grey" stroke="grey" stroke-width="2" points="418.45,-240.91 428.24,-236.86 418.07,-233.92 418.45,-240.91"/>
</g>
<!-- 8 -->
<g id="node9" class="node">
<title>8</title>
<path fill="none" stroke="#567bd8" stroke-width="2" stroke-dasharray="5,2" d="M91,-540C91,-540 12,-540 12,-540 6,-540 0,-534 0,-528 0,-528 0,-516 0,-516 0,-510 6,-504 12,-504 12,-504 91,-504 91,-504 97,-504 103,-510 103,-516 103,-516 103,-528 103,-528 103,-534 97,-540 91,-540"/>
<text text-anchor="middle" x="51.5" y="-519.5" font-family="sans" font-size="10.00">trim_galore_input</text>
</g>
<!-- 8&#45;&gt;7 -->
<g id="edge16" class="edge">
<title>8&#45;&gt;7</title>
<path fill="none" stroke="grey" stroke-width="2" d="M58.92,-503.7C62.29,-495.81 66.37,-486.3 70.12,-477.55"/>
<polygon fill="grey" stroke="grey" stroke-width="2" points="73.45,-478.67 74.17,-468.1 67.01,-475.92 73.45,-478.67"/>
</g>
<!-- 8&#45;&gt;25 -->
<g id="edge41" class="edge">
<title>8&#45;&gt;25</title>
<path fill="none" stroke="grey" stroke-width="2" d="M32.46,-503.84C23.32,-494.3 13.33,-481.62 8.5,-468 3.15,-452.92 3.58,-447.22 8.5,-432 32.79,-356.88 45.02,-328.98 112.5,-288 162.82,-257.44 330.67,-243.29 418.26,-237.85"/>
<polygon fill="grey" stroke="grey" stroke-width="2" points="418.5,-241.34 428.27,-237.24 418.08,-234.35 418.5,-241.34"/>
</g>
<!-- 9 -->
<g id="node10" class="node">
<title>9</title>
<path fill="none" stroke="#b6d856" stroke-width="2" d="M596,-180C596,-180 513,-180 513,-180 507,-180 501,-174 501,-168 501,-168 501,-156 501,-156 501,-150 507,-144 513,-144 513,-144 596,-144 596,-144 602,-144 608,-150 608,-156 608,-156 608,-168 608,-168 608,-174 602,-180 596,-180"/>
<text text-anchor="middle" x="554.5" y="-159.5" font-family="sans" font-size="10.00">bamcoverage_odd</text>
</g>
<!-- 9&#45;&gt;0 -->
<g id="edge5" class="edge">
<title>9&#45;&gt;0</title>
<path fill="none" stroke="grey" stroke-width="2" d="M564.27,-143.87C578.32,-119.24 604.33,-73.64 620.73,-44.88"/>
<polygon fill="grey" stroke="grey" stroke-width="2" points="623.78,-46.61 625.69,-36.19 617.7,-43.14 623.78,-46.61"/>
</g>
<!-- 9&#45;&gt;21 -->
<g id="edge28" class="edge">
<title>9&#45;&gt;21</title>
<path fill="none" stroke="grey" stroke-width="2" d="M584.34,-143.88C600.44,-134.64 620.5,-123.13 637.79,-113.21"/>
<polygon fill="grey" stroke="grey" stroke-width="2" points="639.61,-116.2 646.54,-108.19 636.13,-110.13 639.61,-116.2"/>
</g>
<!-- 10 -->
<g id="node11" class="node">
<title>10</title>
<path fill="none" stroke="#ced856" stroke-width="2" d="M883,-324C883,-324 782,-324 782,-324 776,-324 770,-318 770,-312 770,-312 770,-300 770,-300 770,-294 776,-288 782,-288 782,-288 883,-288 883,-288 889,-288 895,-294 895,-300 895,-300 895,-312 895,-312 895,-318 889,-324 883,-324"/>
<text text-anchor="middle" x="832.5" y="-303.5" font-family="sans" font-size="10.00">postprocess_bam_odd</text>
</g>
<!-- 10&#45;&gt;9 -->
<g id="edge17" class="edge">
<title>10&#45;&gt;9</title>
<path fill="none" stroke="grey" stroke-width="2" d="M798.97,-287.87C748.46,-262.07 652.87,-213.25 597.37,-184.9"/>
<polygon fill="grey" stroke="grey" stroke-width="2" points="598.65,-181.62 588.15,-180.19 595.47,-187.86 598.65,-181.62"/>
</g>
<!-- 20 -->
<g id="node21" class="node">
<title>20</title>
<path fill="none" stroke="#d8bc56" stroke-width="2" d="M964.5,-252C964.5,-252 908.5,-252 908.5,-252 902.5,-252 896.5,-246 896.5,-240 896.5,-240 896.5,-228 896.5,-228 896.5,-222 902.5,-216 908.5,-216 908.5,-216 964.5,-216 964.5,-216 970.5,-216 976.5,-222 976.5,-228 976.5,-228 976.5,-240 976.5,-240 976.5,-246 970.5,-252 964.5,-252"/>
<text text-anchor="middle" x="936.5" y="-231.5" font-family="sans" font-size="10.00">merge_bams</text>
</g>
<!-- 10&#45;&gt;20 -->
<g id="edge26" class="edge">
<title>10&#45;&gt;20</title>
<path fill="none" stroke="grey" stroke-width="2" d="M857.94,-287.88C871.29,-278.89 887.82,-267.76 902.28,-258.03"/>
<polygon fill="grey" stroke="grey" stroke-width="2" points="904.62,-260.68 910.96,-252.19 900.71,-254.87 904.62,-260.68"/>
</g>
<!-- 10&#45;&gt;22 -->
<g id="edge31" class="edge">
<title>10&#45;&gt;22</title>
<path fill="none" stroke="grey" stroke-width="2" d="M832.5,-287.7C832.5,-279.98 832.5,-270.71 832.5,-262.11"/>
<polygon fill="grey" stroke="grey" stroke-width="2" points="836,-262.1 832.5,-252.1 829,-262.1 836,-262.1"/>
</g>
<!-- 10&#45;&gt;25 -->
<g id="edge48" class="edge">
<title>10&#45;&gt;25</title>
<path fill="none" stroke="grey" stroke-width="2" d="M769.71,-289.98C766.6,-289.3 763.52,-288.63 760.5,-288 679.3,-270.95 584.58,-254.1 526.59,-244.12"/>
<polygon fill="grey" stroke="grey" stroke-width="2" points="526.99,-240.64 516.55,-242.4 525.81,-247.54 526.99,-240.64"/>
</g>
<!-- 11 -->
<g id="node12" class="node">
<title>11</title>
<path fill="none" stroke="#d85656" stroke-width="2" d="M487.5,-396C487.5,-396 387.5,-396 387.5,-396 381.5,-396 375.5,-390 375.5,-384 375.5,-384 375.5,-372 375.5,-372 375.5,-366 381.5,-360 387.5,-360 387.5,-360 487.5,-360 487.5,-360 493.5,-360 499.5,-366 499.5,-372 499.5,-372 499.5,-384 499.5,-384 499.5,-390 493.5,-396 487.5,-396"/>
<text text-anchor="middle" x="437.5" y="-375.5" font-family="sans" font-size="10.00">bowtie2_genome_odd</text>
</g>
<!-- 11&#45;&gt;10 -->
<g id="edge18" class="edge">
<title>11&#45;&gt;10</title>
<path fill="none" stroke="grey" stroke-width="2" d="M499.65,-368.11C562.69,-358.79 663.27,-343.12 759.8,-324.07"/>
<polygon fill="grey" stroke="grey" stroke-width="2" points="760.6,-327.48 769.73,-322.09 759.24,-320.61 760.6,-327.48"/>
</g>
<!-- 11&#45;&gt;25 -->
<g id="edge45" class="edge">
<title>11&#45;&gt;25</title>
<path fill="none" stroke="grey" stroke-width="2" d="M441.72,-359.87C447.71,-335.56 458.74,-290.82 465.84,-262.01"/>
<polygon fill="grey" stroke="grey" stroke-width="2" points="469.27,-262.74 468.26,-252.19 462.47,-261.06 469.27,-262.74"/>
</g>
<!-- 12 -->
<g id="node13" class="node">
<title>12</title>
<path fill="none" stroke="#d89556" stroke-width="2" stroke-dasharray="5,2" d="M396,-468C396,-468 299,-468 299,-468 293,-468 287,-462 287,-456 287,-456 287,-444 287,-444 287,-438 293,-432 299,-432 299,-432 396,-432 396,-432 402,-432 408,-438 408,-444 408,-444 408,-456 408,-456 408,-462 402,-468 396,-468"/>
<text text-anchor="middle" x="347.5" y="-447.5" font-family="sans" font-size="10.00">bowtie2_repeats_odd</text>
</g>
<!-- 12&#45;&gt;11 -->
<g id="edge19" class="edge">
<title>12&#45;&gt;11</title>
<path fill="none" stroke="grey" stroke-width="2" d="M369.75,-431.7C381.08,-422.88 395.03,-412.03 407.32,-402.47"/>
<polygon fill="grey" stroke="grey" stroke-width="2" points="409.76,-405.01 415.51,-396.1 405.47,-399.48 409.76,-405.01"/>
</g>
<!-- 12&#45;&gt;25 -->
<g id="edge42" class="edge">
<title>12&#45;&gt;25</title>
<path fill="none" stroke="grey" stroke-width="2" d="M348.67,-431.79C350.49,-413.24 355.07,-383.25 366.5,-360 385.98,-320.37 420.8,-282.85 445.2,-259.44"/>
<polygon fill="grey" stroke="grey" stroke-width="2" points="447.85,-261.76 452.72,-252.36 443.05,-256.67 447.85,-261.76"/>
</g>
<!-- 13 -->
<g id="node14" class="node">
<title>13</title>
<path fill="none" stroke="#d87d56" stroke-width="2" stroke-dasharray="5,2" d="M238.5,-540C238.5,-540 166.5,-540 166.5,-540 160.5,-540 154.5,-534 154.5,-528 154.5,-528 154.5,-516 154.5,-516 154.5,-510 160.5,-504 166.5,-504 166.5,-504 238.5,-504 238.5,-504 244.5,-504 250.5,-510 250.5,-516 250.5,-516 250.5,-528 250.5,-528 250.5,-534 244.5,-540 238.5,-540"/>
<text text-anchor="middle" x="202.5" y="-519.5" font-family="sans" font-size="10.00">trim_galore_odd</text>
</g>
<!-- 13&#45;&gt;12 -->
<g id="edge20" class="edge">
<title>13&#45;&gt;12</title>
<path fill="none" stroke="grey" stroke-width="2" d="M237.97,-503.88C257.62,-494.39 282.22,-482.51 303.13,-472.42"/>
<polygon fill="grey" stroke="grey" stroke-width="2" points="304.66,-475.57 312.14,-468.07 301.62,-469.26 304.66,-475.57"/>
</g>
<!-- 13&#45;&gt;25 -->
<g id="edge39" class="edge">
<title>13&#45;&gt;25</title>
<path fill="none" stroke="grey" stroke-width="2" d="M193.39,-503.8C178.4,-472.96 152.68,-407.08 178.5,-360 225.47,-274.37 346.93,-247.4 418.18,-238.91"/>
<polygon fill="grey" stroke="grey" stroke-width="2" points="418.75,-242.36 428.31,-237.78 417.98,-235.41 418.75,-242.36"/>
</g>
<!-- 14 -->
<g id="node15" class="node">
<title>14</title>
<path fill="none" stroke="#56a9d8" stroke-width="2" d="M1154,-180C1154,-180 1065,-180 1065,-180 1059,-180 1053,-174 1053,-168 1053,-168 1053,-156 1053,-156 1053,-150 1059,-144 1065,-144 1065,-144 1154,-144 1154,-144 1160,-144 1166,-150 1166,-156 1166,-156 1166,-168 1166,-168 1166,-174 1160,-180 1154,-180"/>
<text text-anchor="middle" x="1109.5" y="-159.5" font-family="sans" font-size="10.00">bamcoverage_even</text>
</g>
<!-- 14&#45;&gt;0 -->
<g id="edge6" class="edge">
<title>14&#45;&gt;0</title>
<path fill="none" stroke="grey" stroke-width="2" d="M1101.15,-143.94C1089.98,-123.15 1068.1,-88.72 1038.5,-72 976.28,-36.86 760.3,-24.15 672.77,-20.37"/>
<polygon fill="grey" stroke="grey" stroke-width="2" points="672.89,-16.87 662.75,-19.95 672.6,-23.87 672.89,-16.87"/>
</g>
<!-- 14&#45;&gt;21 -->
<g id="edge29" class="edge">
<title>14&#45;&gt;21</title>
<path fill="none" stroke="grey" stroke-width="2" d="M1052.87,-151.45C1037.51,-148.94 1020.88,-146.3 1005.5,-144 890.62,-126.84 858.14,-131.33 739.81,-107.91"/>
<polygon fill="grey" stroke="grey" stroke-width="2" points="740.5,-104.48 730,-105.94 739.12,-111.34 740.5,-104.48"/>
</g>
<!-- 15 -->
<g id="node16" class="node">
<title>15</title>
<path fill="none" stroke="#56b9d8" stroke-width="2" d="M1032,-324C1032,-324 925,-324 925,-324 919,-324 913,-318 913,-312 913,-312 913,-300 913,-300 913,-294 919,-288 925,-288 925,-288 1032,-288 1032,-288 1038,-288 1044,-294 1044,-300 1044,-300 1044,-312 1044,-312 1044,-318 1038,-324 1032,-324"/>
<text text-anchor="middle" x="978.5" y="-303.5" font-family="sans" font-size="10.00">postprocess_bam_even</text>
</g>
<!-- 15&#45;&gt;14 -->
<g id="edge21" class="edge">
<title>15&#45;&gt;14</title>
<path fill="none" stroke="grey" stroke-width="2" d="M994.3,-287.87C1017.32,-262.92 1060.19,-216.45 1086.65,-187.77"/>
<polygon fill="grey" stroke="grey" stroke-width="2" points="1089.43,-189.91 1093.64,-180.19 1084.29,-185.17 1089.43,-189.91"/>
</g>
<!-- 15&#45;&gt;20 -->
<g id="edge27" class="edge">
<title>15&#45;&gt;20</title>
<path fill="none" stroke="grey" stroke-width="2" d="M968.12,-287.7C963.24,-279.56 957.31,-269.69 951.92,-260.7"/>
<polygon fill="grey" stroke="grey" stroke-width="2" points="954.91,-258.88 946.76,-252.1 948.91,-262.48 954.91,-258.88"/>
</g>
<!-- 15&#45;&gt;22 -->
<g id="edge32" class="edge">
<title>15&#45;&gt;22</title>
<path fill="none" stroke="grey" stroke-width="2" d="M942.78,-287.88C923,-278.39 898.23,-266.51 877.17,-256.42"/>
<polygon fill="grey" stroke="grey" stroke-width="2" points="878.63,-253.24 868.1,-252.07 875.6,-259.55 878.63,-253.24"/>
</g>
<!-- 15&#45;&gt;25 -->
<g id="edge49" class="edge">
<title>15&#45;&gt;25</title>
<path fill="none" stroke="grey" stroke-width="2" d="M912.8,-289.54C910,-288.99 907.23,-288.48 904.5,-288 769.43,-264.27 608.75,-247.55 526.66,-239.82"/>
<polygon fill="grey" stroke="grey" stroke-width="2" points="526.85,-236.33 516.57,-238.88 526.2,-243.3 526.85,-236.33"/>
</g>
<!-- 16 -->
<g id="node17" class="node">
<title>16</title>
<path fill="none" stroke="#d86e56" stroke-width="2" d="M711.5,-396C711.5,-396 605.5,-396 605.5,-396 599.5,-396 593.5,-390 593.5,-384 593.5,-384 593.5,-372 593.5,-372 593.5,-366 599.5,-360 605.5,-360 605.5,-360 711.5,-360 711.5,-360 717.5,-360 723.5,-366 723.5,-372 723.5,-372 723.5,-384 723.5,-384 723.5,-390 717.5,-396 711.5,-396"/>
<text text-anchor="middle" x="658.5" y="-375.5" font-family="sans" font-size="10.00">bowtie2_genome_even</text>
</g>
<!-- 16&#45;&gt;15 -->
<g id="edge22" class="edge">
<title>16&#45;&gt;15</title>
<path fill="none" stroke="grey" stroke-width="2" d="M723.55,-363.24C770.85,-353.17 836.68,-339.04 902.96,-324.33"/>
<polygon fill="grey" stroke="grey" stroke-width="2" points="903.74,-327.74 912.74,-322.16 902.22,-320.91 903.74,-327.74"/>
</g>
<!-- 16&#45;&gt;25 -->
<g id="edge46" class="edge">
<title>16&#45;&gt;25</title>
<path fill="none" stroke="grey" stroke-width="2" d="M643.56,-359.87C626.43,-340.86 596.89,-309.95 567.5,-288 551.92,-276.37 533.52,-265.52 517.07,-256.71"/>
<polygon fill="grey" stroke="grey" stroke-width="2" points="518.65,-253.58 508.16,-252.03 515.39,-259.78 518.65,-253.58"/>
</g>
<!-- 17 -->
<g id="node18" class="node">
<title>17</title>
<path fill="none" stroke="#d8cb56" stroke-width="2" stroke-dasharray="5,2" d="M671,-468C671,-468 568,-468 568,-468 562,-468 556,-462 556,-456 556,-456 556,-444 556,-444 556,-438 562,-432 568,-432 568,-432 671,-432 671,-432 677,-432 683,-438 683,-444 683,-444 683,-456 683,-456 683,-462 677,-468 671,-468"/>
<text text-anchor="middle" x="619.5" y="-447.5" font-family="sans" font-size="10.00">bowtie2_repeats_even</text>
</g>
<!-- 17&#45;&gt;16 -->
<g id="edge23" class="edge">
<title>17&#45;&gt;16</title>
<path fill="none" stroke="grey" stroke-width="2" d="M629.14,-431.7C633.63,-423.64 639.06,-413.89 644.02,-404.98"/>
<polygon fill="grey" stroke="grey" stroke-width="2" points="647.16,-406.54 648.97,-396.1 641.05,-403.14 647.16,-406.54"/>
</g>
<!-- 17&#45;&gt;25 -->
<g id="edge43" class="edge">
<title>17&#45;&gt;25</title>
<path fill="none" stroke="grey" stroke-width="2" d="M607.33,-431.65C600.35,-421.45 591.6,-408.2 584.5,-396 557.39,-349.45 561.94,-331 529.5,-288 521.62,-277.55 511.54,-267.42 502.05,-258.86"/>
<polygon fill="grey" stroke="grey" stroke-width="2" points="504.12,-256.02 494.29,-252.07 499.51,-261.29 504.12,-256.02"/>
</g>
<!-- 18 -->
<g id="node19" class="node">
<title>18</title>
<path fill="none" stroke="#56d8a9" stroke-width="2" stroke-dasharray="5,2" d="M612.5,-540C612.5,-540 534.5,-540 534.5,-540 528.5,-540 522.5,-534 522.5,-528 522.5,-528 522.5,-516 522.5,-516 522.5,-510 528.5,-504 534.5,-504 534.5,-504 612.5,-504 612.5,-504 618.5,-504 624.5,-510 624.5,-516 624.5,-516 624.5,-528 624.5,-528 624.5,-534 618.5,-540 612.5,-540"/>
<text text-anchor="middle" x="573.5" y="-519.5" font-family="sans" font-size="10.00">trim_galore_even</text>
</g>
<!-- 18&#45;&gt;17 -->
<g id="edge24" class="edge">
<title>18&#45;&gt;17</title>
<path fill="none" stroke="grey" stroke-width="2" d="M584.87,-503.7C590.22,-495.56 596.7,-485.69 602.61,-476.7"/>
<polygon fill="grey" stroke="grey" stroke-width="2" points="605.69,-478.38 608.26,-468.1 599.84,-474.54 605.69,-478.38"/>
</g>
<!-- 18&#45;&gt;25 -->
<g id="edge40" class="edge">
<title>18&#45;&gt;25</title>
<path fill="none" stroke="grey" stroke-width="2" d="M563.76,-503.67C558.27,-493.48 551.52,-480.23 546.5,-468 530.79,-429.72 496.08,-314.56 480.43,-261.86"/>
<polygon fill="grey" stroke="grey" stroke-width="2" points="483.76,-260.79 477.56,-252.2 477.05,-262.78 483.76,-260.79"/>
</g>
<!-- 19 -->
<g id="node20" class="node">
<title>19</title>
<path fill="none" stroke="#56d8d0" stroke-width="2" d="M984.5,-180C984.5,-180 882.5,-180 882.5,-180 876.5,-180 870.5,-174 870.5,-168 870.5,-168 870.5,-156 870.5,-156 870.5,-150 876.5,-144 882.5,-144 882.5,-144 984.5,-144 984.5,-144 990.5,-144 996.5,-150 996.5,-156 996.5,-156 996.5,-168 996.5,-168 996.5,-174 990.5,-180 984.5,-180"/>
<text text-anchor="middle" x="933.5" y="-159.5" font-family="sans" font-size="10.00">bamcoverage_merged</text>
</g>
<!-- 19&#45;&gt;0 -->
<g id="edge7" class="edge">
<title>19&#45;&gt;0</title>
<path fill="none" stroke="grey" stroke-width="2" d="M929.38,-143.68C923.59,-123.28 911.03,-89.91 887.5,-72 854.12,-46.6 734.28,-29.96 672.67,-22.88"/>
<polygon fill="grey" stroke="grey" stroke-width="2" points="672.91,-19.39 662.58,-21.75 672.13,-26.35 672.91,-19.39"/>
</g>
<!-- 19&#45;&gt;24 -->
<g id="edge37" class="edge">
<title>19&#45;&gt;24</title>
<path fill="none" stroke="grey" stroke-width="2" d="M901.94,-143.88C884.84,-134.6 863.52,-123.03 845.18,-113.08"/>
<polygon fill="grey" stroke="grey" stroke-width="2" points="846.64,-109.88 836.18,-108.19 843.3,-116.04 846.64,-109.88"/>
</g>
<!-- 20&#45;&gt;19 -->
<g id="edge25" class="edge">
<title>20&#45;&gt;19</title>
<path fill="none" stroke="grey" stroke-width="2" d="M935.76,-215.7C935.43,-207.98 935.03,-198.71 934.66,-190.11"/>
<polygon fill="grey" stroke="grey" stroke-width="2" points="938.16,-189.95 934.23,-180.1 931.16,-190.25 938.16,-189.95"/>
</g>
<!-- 20&#45;&gt;23 -->
<g id="edge34" class="edge">
<title>20&#45;&gt;23</title>
<path fill="none" stroke="grey" stroke-width="2" d="M904.21,-215.88C886.63,-206.55 864.69,-194.92 845.87,-184.94"/>
<polygon fill="grey" stroke="grey" stroke-width="2" points="847.39,-181.78 836.91,-180.19 844.11,-187.97 847.39,-181.78"/>
</g>
<!-- 21&#45;&gt;0 -->
<g id="edge8" class="edge">
<title>21&#45;&gt;0</title>
<path fill="none" stroke="grey" stroke-width="2" d="M666.37,-71.7C661.65,-63.64 655.94,-53.89 650.72,-44.98"/>
<polygon fill="grey" stroke="grey" stroke-width="2" points="653.59,-42.96 645.52,-36.1 647.55,-46.5 653.59,-42.96"/>
</g>
<!-- 22&#45;&gt;0 -->
<g id="edge9" class="edge">
<title>22&#45;&gt;0</title>
<path fill="none" stroke="grey" stroke-width="2" d="M878.11,-218.89C881.29,-217.91 884.44,-216.94 887.5,-216 939.92,-199.9 972.87,-224.07 1005.5,-180 1015.02,-167.14 1012.43,-158.42 1005.5,-144 983.31,-97.83 962.04,-93.4 915.5,-72 834.21,-34.63 728.04,-23.61 672.71,-20.36"/>
<polygon fill="grey" stroke="grey" stroke-width="2" points="672.84,-16.86 662.66,-19.82 672.46,-23.85 672.84,-16.86"/>
</g>
<!-- 23&#45;&gt;0 -->
<g id="edge10" class="edge">
<title>23&#45;&gt;0</title>
<path fill="none" stroke="grey" stroke-width="2" d="M836.55,-143.88C849.62,-135.05 863.32,-122.97 870.5,-108 877.42,-93.57 880.49,-84.5 870.5,-72 846.17,-41.57 732.78,-27.36 672.85,-21.88"/>
<polygon fill="grey" stroke="grey" stroke-width="2" points="672.93,-18.37 662.67,-20.98 672.32,-25.35 672.93,-18.37"/>
</g>
<!-- 23&#45;&gt;24 -->
<g id="edge36" class="edge">
<title>23&#45;&gt;24</title>
<path fill="none" stroke="grey" stroke-width="2" d="M804.5,-143.7C804.5,-135.98 804.5,-126.71 804.5,-118.11"/>
<polygon fill="grey" stroke="grey" stroke-width="2" points="808,-118.1 804.5,-108.1 801,-118.1 808,-118.1"/>
</g>
<!-- 24&#45;&gt;0 -->
<g id="edge11" class="edge">
<title>24&#45;&gt;0</title>
<path fill="none" stroke="grey" stroke-width="2" d="M763.16,-71.88C735.31,-60.34 698.91,-45.26 672.11,-34.16"/>
<polygon fill="grey" stroke="grey" stroke-width="2" points="673.28,-30.86 662.7,-30.27 670.6,-37.33 673.28,-30.86"/>
</g>
<!-- 25&#45;&gt;0 -->
<g id="edge12" class="edge">
<title>25&#45;&gt;0</title>
<path fill="none" stroke="grey" stroke-width="2" d="M472.97,-215.77C474.19,-196.93 478.25,-166.45 491.5,-144 517.99,-99.11 566.36,-62.16 599.68,-40.36"/>
<polygon fill="grey" stroke="grey" stroke-width="2" points="601.69,-43.23 608.22,-34.88 597.91,-37.33 601.69,-43.23"/>
</g>
</g>
</svg>
